<svg id="visual" viewBox="0 0 1920 1080" width="1920" height="1080" xmlns="http://www.w3.org/2000/svg" xmlns:xlink="http://www.w3.org/1999/xlink" version="1.1"><rect x="0" y="0" width="1920" height="1080" fill="#001220"></rect><defs><linearGradient id="grad1_0" x1="43.8%" y1="100%" x2="100%" y2="0%"><stop offset="14.444444444444446%" stop-color="#001220" stop-opacity="1"></stop><stop offset="85.55555555555554%" stop-color="#001220" stop-opacity="1"></stop></linearGradient></defs><defs><linearGradient id="grad2_0" x1="0%" y1="100%" x2="56.3%" y2="0%"><stop offset="14.444444444444446%" stop-color="#001220" stop-opacity="1"></stop><stop offset="85.55555555555554%" stop-color="#001220" stop-opacity="1"></stop></linearGradient></defs><g transform="translate(1920, 1080)"><path d="M-594 0C-552.4 -69.5 -510.8 -139 -471.2 -195.2C-431.6 -251.3 -394 -294.1 -357.8 -357.8C-321.6 -421.5 -286.7 -505.9 -227.3 -548.8C-167.9 -591.6 -84 -592.8 0 -594L0 0Z" fill="#FBAE3C"></path></g><g transform="translate(0, 0)"><path d="M594 0C552.5 69 510.9 138 473 195.9C435.1 253.9 400.8 300.7 364.2 364.2C327.5 427.6 288.4 507.7 227.3 548.8C166.2 589.9 83.1 591.9 0 594L0 0Z" fill="#FBAE3C"></path></g></svg>