<svg id="visual" viewBox="0 0 1920 1080" width="1920" height="1080" xmlns="http://www.w3.org/2000/svg" xmlns:xlink="http://www.w3.org/1999/xlink" version="1.1"><rect x="0" y="0" width="1920" height="1080" fill="#001220"></rect><defs><linearGradient id="grad1_0" x1="43.8%" y1="0%" x2="100%" y2="100%"><stop offset="14.444444444444446%" stop-color="#001220" stop-opacity="1"></stop><stop offset="85.55555555555554%" stop-color="#001220" stop-opacity="1"></stop></linearGradient></defs><defs><linearGradient id="grad2_0" x1="0%" y1="0%" x2="56.3%" y2="100%"><stop offset="14.444444444444446%" stop-color="#001220" stop-opacity="1"></stop><stop offset="85.55555555555554%" stop-color="#001220" stop-opacity="1"></stop></linearGradient></defs><g transform="translate(1920, 0)"><path d="M0 594C-69.5 552.4 -139 510.8 -195.2 471.2C-251.3 431.6 -294.1 394 -357.8 357.8C-421.5 321.6 -505.9 286.7 -548.8 227.3C-591.6 167.9 -592.8 84 -594 0L0 0Z" fill="#f5fe6d"></path></g><g transform="translate(0, 1080)"><path d="M0 -594C69 -552.5 138 -510.9 195.9 -473C253.9 -435.1 300.7 -400.8 364.2 -364.2C427.6 -327.5 507.7 -288.4 548.8 -227.3C589.9 -166.2 591.9 -83.1 594 0L0 0Z" fill="#f5fe6d"></path></g></svg>