<svg id="visual" viewBox="0 0 1920 1080" width="1920" height="1080" xmlns="http://www.w3.org/2000/svg" xmlns:xlink="http://www.w3.org/1999/xlink" version="1.1"><rect x="0" y="0" width="1920" height="1080" fill="#ffffff"></rect><defs><linearGradient id="grad1_0" x1="43.8%" y1="100%" x2="100%" y2="0%"><stop offset="14.444444444444446%" stop-color="#ffffff" stop-opacity="1"></stop><stop offset="85.55555555555554%" stop-color="#ffffff" stop-opacity="1"></stop></linearGradient></defs><defs><linearGradient id="grad2_0" x1="0%" y1="100%" x2="56.3%" y2="0%"><stop offset="14.444444444444446%" stop-color="#ffffff" stop-opacity="1"></stop><stop offset="85.55555555555554%" stop-color="#ffffff" stop-opacity="1"></stop></linearGradient></defs><g transform="translate(1920, 1080)"><path d="M-594 0C-588.9 -80.5 -583.7 -161.1 -548.8 -227.3C-513.9 -293.6 -449.2 -345.5 -388.2 -388.2C-327.2 -430.9 -270 -464.3 -205.9 -497C-141.8 -529.8 -70.9 -561.9 0 -594L0 0Z" fill="#f5fe6d"></path></g><g transform="translate(0, 0)"><path d="M594 0C567.9 70.1 541.9 140.3 517.4 214.3C492.9 288.3 469.9 366.2 420 420C370.2 473.8 293.4 503.5 218.9 528.5C144.4 553.4 72.2 573.7 0 594L0 0Z" fill="#f5fe6d"></path></g></svg>